inDegrees=no
num_controls=7
num_derivatives=13
num_iterations=195
num_multipliers=7
num_parameters=0
num_slacks=7
num_states=26
objective=0.502903
objective_accelerations=0.003114
objective_balance=0.002831
objective_effort=0.007230
objective_height=0.475938
objective_ligament=0.013790
solver_duration=2557.264248
status=Solve_Succeeded
success=true
DataType=double
version=3
OpenSimVersion=4.5
endheader
time	/jointset/ground_pelvis/pelvis_tilt/value	/jointset/ground_pelvis/pelvis_tx/value	/jointset/ground_pelvis/pelvis_ty/value	/jointset/hip_l/hip_flexion_l/value	/jointset/hip_l/hip_adduction_l/value	/jointset/hip_l/hip_rotation_l/value	/jointset/back/lumbar_extension/value	/jointset/patellofemoral_l/patellar_flexion_l/value	/jointset/knee_l/knee_flexion_l/value	/jointset/knee_l/knee_adduction_l/value	/jointset/knee_l/knee_rotation_l/value	/jointset/ankle_l/ankle_angle_l/value	/jointset/subtalar_l/subtalar_angle_l/value	/jointset/ground_pelvis/pelvis_tilt/speed	/jointset/ground_pelvis/pelvis_tx/speed	/jointset/ground_pelvis/pelvis_ty/speed	/jointset/hip_l/hip_flexion_l/speed	/jointset/hip_l/hip_adduction_l/speed	/jointset/hip_l/hip_rotation_l/speed	/jointset/back/lumbar_extension/speed	/jointset/patellofemoral_l/patellar_flexion_l/speed	/jointset/knee_l/knee_flexion_l/speed	/jointset/knee_l/knee_adduction_l/speed	/jointset/knee_l/knee_rotation_l/speed	/jointset/ankle_l/ankle_angle_l/speed	/jointset/subtalar_l/subtalar_angle_l/speed	/forceset/tau_hip_flexion_l	/forceset/tau_hip_adduction_l	/forceset/tau_hip_rotation_l	/forceset/tau_knee_flexion_l	/forceset/tau_ankle_angle_l	/forceset/tau_subtalar_angle_l	/forceset/tau_lumbar_extension	lambda_cid13_p0	lambda_cid13_p1	lambda_cid13_p2	lambda_cid13_p3	lambda_cid13_p4	lambda_cid13_p5	lambda_cid14_p0	/jointset/ground_pelvis/pelvis_tilt/accel	/jointset/ground_pelvis/pelvis_tx/accel	/jointset/ground_pelvis/pelvis_ty/accel	/jointset/hip_l/hip_flexion_l/accel	/jointset/hip_l/hip_adduction_l/accel	/jointset/hip_l/hip_rotation_l/accel	/jointset/back/lumbar_extension/accel	/jointset/patellofemoral_l/patellar_flexion_l/accel	/jointset/knee_l/knee_flexion_l/accel	/jointset/knee_l/knee_adduction_l/accel	/jointset/knee_l/knee_rotation_l/accel	/jointset/ankle_l/ankle_angle_l/accel	/jointset/subtalar_l/subtalar_angle_l/accel	gamma_cid13_p0	gamma_cid13_p1	gamma_cid13_p2	gamma_cid13_p3	gamma_cid13_p4	gamma_cid13_p5	gamma_cid14_p0
1	0.04382158965627713	0.07984416678786868	0.9340495209441037	0.1608392986344145	-0.274921954139551	-0.3290861094531706	-0.5115396923527502	0.1969799147164229	0.1969799147164228	-0.1486650189002952	-0.1744474131089863	0.02045185057813584	0.03005927448255055	0.1126562995416227	0.03960799641552935	0.02106736975127644	-0.260389785435003	0.02717528920239392	-0.05891546630342576	-0.004217404144589793	-0.1474799210229067	-0.1474799210229067	0.005300585175337626	0.0001944164804013408	0.001109273061334519	0.0299164409187932	-0.0666411557577159	0.0633461408923591	-0.003945100546808462	-0.07794812174296013	0.03387468281516807	-0.01192989854449196	0.162966425918346	-36.049148684613	7.051710946159877	3.494591137259313	4.439072680008648	-705.8578536576013	-47.5486971354671	-22.26092185768961	-0.03836224434693115	0.01550665751108756	-0.003973454832306376	-0.08595275714505766	-0.0104234970713988	-0.04637714552027043	0.4697758399188198	-0.17888553273935	-0.17888553273935	-0.09605080535461499	-0.0006382500449501431	-0.08158236198042756	-0.04027227040193932	-4.278040486699369e-10	-1.804438099306322e-09	3.160596548103654e-10	3.796665762986865e-10	-4.853071279817814e-09	1.68125392819847e-10	-2.242613092374852e-10
1.01	0.04494619708749571	0.08024100998856858	0.9342599815395668	0.1582312231043498	-0.2746507537698696	-0.3296775345766894	-0.5115584069893541	0.1954962884952528	0.1954962884952529	-0.1486168448440273	-0.1744454997108993	0.0204588926431754	0.0303564010223755	0.1122648231377053	0.0397600205683661	0.02102424511677068	-0.2612255646396752	0.02706201072502246	-0.05936756237613668	0.0004694632514215457	-0.1492464735907668	-0.1492464735907669	0.004327425622509738	0.0001894450984629453	0.0002968027071252487	0.02950494576169287	-0.06578448197474326	0.0632011014561174	-0.003982070750535727	-0.07777515187051311	0.03380177576421892	-0.01210233994855156	0.1624506321839725	-36.07654091201279	7.12432049848049	3.491099886615887	4.431454701393384	-705.7986947153565	-47.53365403459918	-22.23269088717554	-0.03959474597999382	0.01495690052209807	-0.004558566409410112	-0.08242706584965148	-0.01219568267283996	-0.04432660288099498	0.4673901535814207	-0.1757126334165939	-0.1757126334165968	-0.09896894513887969	-0.0002491375431031885	-0.08143001167236108	-0.0421760964550891	-4.299498227135049e-10	-1.723504116811115e-09	3.881036614923738e-10	3.986385138177351e-10	-4.825087282376899e-09	7.210452805081106e-11	-2.118413184301778e-10
1.02	0.04606687887316192	0.08063935475206731	0.934469995568955	0.1556147824694942	-0.2743807693168824	-0.3302734208138821	-0.5115304033591699	0.1939949622454828	0.1939949622454827	-0.1485786064662661	-0.1744436005376868	0.02045773987676663	0.03064929501901125	0.1118711704311535	0.03990830897528835	0.02097805653627706	-0.2620628063932015	0.02693210586353824	-0.05980768903822729	0.005126249212997949	-0.1510199267429171	-0.1510199267429172	0.00331344947400147	0.0001915715055317935	-0.000529693228331635	0.02906993228095217	-0.06492780819177053	0.06305606201987574	-0.004019040954262997	-0.07760218199806646	0.03372886871326981	-0.01227478135261095	0.161934838449599	-36.10549768759576	7.197077212348531	3.487729987699115	4.428459934916198	-705.7608147018559	-47.52136220578591	-22.20390792015298	-0.03879750487382158	0.01475950832818701	-0.004586244029877738	-0.08624526691587771	-0.01374877389394754	-0.04398326339620989	0.4637595530318333	-0.1802656495974033	-0.1802656495974033	-0.1042141244907103	0.000781307756498571	-0.08438747822997399	-0.04497593513001268	-3.974857301250339e-10	-1.728343625838838e-09	3.421778382172184e-10	3.800275419517442e-10	-4.703279123124072e-09	9.561187132034779e-11	-2.022092356375685e-10
1.03	0.04718354523349248	0.08103915635816307	0.9346795230298964	0.1529901203027471	-0.2741121431454371	-0.3308736114349357	-0.5114558889189875	0.1924759710626012	0.1924759710626012	-0.1485506253985805	-0.1744416277396545	0.02044829338744055	0.03093776139401434	0.1114546422659903	0.0400506332145718	0.02092595344854799	-0.262853362687969	0.02679271276275932	-0.06022487562826218	0.009781254417110093	-0.1527684685180404	-0.1527684685180402	0.002284793274528321	0.0002055237133489987	-0.001357598671349097	0.02862347951463461	-0.0640911185616844	0.06292112152739296	-0.004048140353776207	-0.07735649097172581	0.03355716099103156	-0.01242359618154801	0.1614236357952499	-36.16410483601336	7.263449988253067	3.486879314211774	4.44618098627833	-705.7047263223745	-47.51843420871496	-22.17456457151221	-0.04419924751930471	0.01376209942565116	-0.005745587019447494	-0.0730211171222488	-0.01409647869067459	-0.03975257782987772	0.4670633431446836	-0.1706722057026877	-0.1706722057026846	-0.1018873427383582	0.00208265360333455	-0.08169122975426078	-0.04445918182292882	-3.646684756321541e-10	-1.734058374575979e-09	2.950482411669891e-10	3.610330710103955e-10	-4.580513574465001e-09	1.203388901821155e-10	-1.926056008859255e-10
